# xmcd
#
# Track frame offsets:
#	150
#	25095
#	43401
#	59872
#	75958
#	97030
#	115547
#	129833
#	145764
#	155619
#	166532
#	191698
#
# Disc length: 3020 seconds
#
# Revision: 1
# Processed by: cddbd v1.5.1PL2 Copyright (c) Steve Scherf et al.
# Submitted via: audiograbber 1.83.01
#
DISCID=960bca0c
DTITLE=Daniel Eriksen - Ya Ya
DYEAR=2006
DGENRE=Blues
TTITLE0=Ya Ya
TTITLE1=Poison
TTITLE2=Blind Man
TTITLE3=Devil's Game
TTITLE4=Pony Blues
TTITLE5=Oh Mama
TTITLE6=Baby You're a Star
TTITLE7=Nobody's Fault But Mine
TTITLE8=Baby Please
TTITLE9=Arctic Slide
TTITLE10=Summertime in Langesund
TTITLE11=Cypress Grove
EXTD=
EXTT0=
EXTT1=
EXTT2=
EXTT3=
EXTT4=
EXTT5=
EXTT6=
EXTT7=
EXTT8=
EXTT9=
EXTT10=
EXTT11=
PLAYORDER=
